<svg width="33" height="33" viewBox="0 0 33 33" fill="none" xmlns="http://www.w3.org/2000/svg">
<path d="M16.5 0C16.949 5.92397e-05 17.3825 0.16493 17.718 0.46334C18.0536 0.76175 18.268 1.17295 18.3205 1.61893L18.3333 1.83345V31.1686C18.3328 31.6359 18.1539 32.0854 17.8331 32.4252C17.5123 32.765 17.0739 32.9695 16.6074 32.9968C16.141 33.0242 15.6816 32.8725 15.3233 32.5725C14.965 32.2726 14.7347 31.8471 14.6795 31.3831L14.6667 31.1686V1.83345C14.6667 1.34719 14.8598 0.880842 15.2036 0.537004C15.5475 0.193166 16.0138 0 16.5 0ZM9.16667 5.50034C9.6529 5.50034 10.1192 5.69351 10.463 6.03734C10.8068 6.38118 11 6.84752 11 7.33379V25.6682C11 26.1545 10.8068 26.6209 10.463 26.9647C10.1192 27.3085 9.6529 27.5017 9.16667 27.5017C8.68044 27.5017 8.21412 27.3085 7.8703 26.9647C7.52649 26.6209 7.33333 26.1545 7.33333 25.6682V7.33379C7.33333 6.84752 7.52649 6.38118 7.8703 6.03734C8.21412 5.69351 8.68044 5.50034 9.16667 5.50034ZM23.8333 5.50034C24.3196 5.50034 24.7859 5.69351 25.1297 6.03734C25.4735 6.38118 25.6667 6.84752 25.6667 7.33379V25.6682C25.6667 26.1545 25.4735 26.6209 25.1297 26.9647C24.7859 27.3085 24.3196 27.5017 23.8333 27.5017C23.3471 27.5017 22.8808 27.3085 22.537 26.9647C22.1932 26.6209 22 26.1545 22 25.6682V7.33379C22 6.84752 22.1932 6.38118 22.537 6.03734C22.8808 5.69351 23.3471 5.50034 23.8333 5.50034ZM1.83333 11.0007C2.31956 11.0007 2.78588 11.1938 3.1297 11.5377C3.47351 11.8815 3.66667 12.3479 3.66667 12.8341V20.1679C3.66667 20.6542 3.47351 21.1205 3.1297 21.4644C2.78588 21.8082 2.31956 22.0014 1.83333 22.0014C1.3471 22.0014 0.880787 21.8082 0.536971 21.4644C0.193154 21.1205 0 20.6542 0 20.1679V12.8341C0 12.3479 0.193154 11.8815 0.536971 11.5377C0.880787 11.1938 1.3471 11.0007 1.83333 11.0007ZM31.1667 11.0007C31.6157 11.0007 32.0491 11.1656 32.3847 11.464C32.7202 11.7624 32.9346 12.1736 32.9872 12.6196L33 12.8341V20.1679C32.9995 20.6352 32.8206 21.0847 32.4998 21.4245C32.179 21.7643 31.7406 21.9688 31.2741 21.9962C30.8076 22.0236 30.3483 21.8718 29.99 21.5718C29.6316 21.2719 29.4014 20.8465 29.3462 20.3824L29.3333 20.1679V12.8341C29.3333 12.3479 29.5265 11.8815 29.8703 11.5377C30.2141 11.1938 30.6804 11.0007 31.1667 11.0007Z" fill="black"/>
</svg>
