<svg width="33" height="26" viewBox="0 0 33 26" fill="none" xmlns="http://www.w3.org/2000/svg">
<path d="M7.16595 0.516772C7.31932 0.680544 7.44099 0.875024 7.524 1.0891C7.60701 1.30317 7.64974 1.53263 7.64974 1.76437C7.64974 1.99611 7.60701 2.22557 7.524 2.43964C7.44099 2.65371 7.31932 2.8482 7.16595 3.01197C4.69074 5.65849 3.30021 9.24767 3.30021 12.9901C3.30021 16.7325 4.69074 20.3217 7.16595 22.9682C7.3235 23.1309 7.44916 23.3255 7.53561 23.5406C7.62206 23.7558 7.66757 23.9871 7.66947 24.2213C7.67137 24.4554 7.62964 24.6876 7.5467 24.9043C7.46376 25.1211 7.34128 25.3179 7.1864 25.4835C7.03152 25.6491 6.84735 25.78 6.64463 25.8687C6.44191 25.9574 6.2247 26.002 6.00567 25.9999C5.78665 25.9979 5.5702 25.9493 5.36895 25.8568C5.1677 25.7644 4.98569 25.6301 4.83352 25.4617C-1.61117 18.5739 -1.61117 7.40457 4.83352 0.516772C5.14285 0.186188 5.56234 0.000475921 5.99974 0.000475921C6.43713 0.000475921 6.85662 0.186188 7.16595 0.516772ZM28.1677 0.516772C34.6108 7.40633 34.6108 18.5739 28.1677 25.4617C27.8584 25.7925 27.4388 25.9785 27.0013 25.9787C26.5637 25.9789 26.144 25.7932 25.8345 25.4625C25.5249 25.1319 25.351 24.6833 25.3508 24.2156C25.3507 23.7478 25.5243 23.2991 25.8336 22.9682C28.3089 20.3217 29.6994 16.7325 29.6994 12.9901C29.6994 9.24767 28.3089 5.65849 25.8336 3.01197C25.5241 2.68108 25.3502 2.23231 25.3502 1.76437C25.3502 1.29643 25.5241 0.847656 25.8336 0.516772C26.1432 0.185889 26.563 9.22421e-09 27.0007 0C27.4384 -9.22421e-09 27.8582 0.185889 28.1677 0.516772ZM12.0601 5.58475C12.3693 5.91543 12.5431 6.36388 12.5431 6.83146C12.5431 7.29905 12.3693 7.7475 12.0601 8.07818C11.4596 8.72007 10.9832 9.48213 10.6582 10.3208C10.3332 11.1595 10.166 12.0585 10.166 12.9663C10.166 13.8741 10.3332 14.773 10.6582 15.6117C10.9832 16.4505 11.4596 17.2125 12.0601 17.8544C12.2132 18.0182 12.3347 18.2127 12.4176 18.4267C12.5004 18.6408 12.543 18.8701 12.5429 19.1017C12.5428 19.3334 12.5001 19.5627 12.4171 19.7766C12.3341 19.9906 12.2125 20.185 12.0593 20.3487C11.906 20.5124 11.7241 20.6423 11.5239 20.7308C11.3237 20.8194 11.1091 20.8649 10.8925 20.8649C10.6758 20.8648 10.4613 20.8191 10.2611 20.7304C10.061 20.6417 9.87917 20.5117 9.72602 20.3478C7.89476 18.3901 6.86598 15.7349 6.86598 12.9663C6.86598 10.1977 7.89476 7.54248 9.72602 5.58475C9.87921 5.42079 10.0611 5.29073 10.2614 5.20199C10.4616 5.11325 10.6763 5.06757 10.8931 5.06757C11.1098 5.06757 11.3245 5.11325 11.5247 5.20199C11.725 5.29073 11.9069 5.42079 12.0601 5.58475ZM23.5375 5.58475C25.3688 7.54248 26.3975 10.1977 26.3975 12.9663C26.3975 15.7349 25.3688 18.3901 23.5375 20.3478C23.2264 20.669 22.8097 20.8468 22.3772 20.8428C21.9447 20.8388 21.531 20.6533 21.2252 20.3264C20.9193 19.9994 20.7458 19.5571 20.7421 19.0948C20.7383 18.6324 20.9046 18.187 21.2051 17.8544C21.8056 17.2125 22.2819 16.4505 22.6069 15.6117C22.9319 14.773 23.0992 13.8741 23.0992 12.9663C23.0992 12.0585 22.9319 11.1595 22.6069 10.3208C22.2819 9.48213 21.8056 8.72007 21.2051 8.07818C20.9046 7.7456 20.7383 7.30017 20.7421 6.83781C20.7458 6.37546 20.9193 5.93318 21.2252 5.60623C21.531 5.27928 21.9447 5.09383 22.3772 5.08981C22.8097 5.08579 23.2264 5.26353 23.5375 5.58475ZM16.6326 10.4693C17.2888 10.4693 17.9181 10.748 18.3822 11.2441C18.8462 11.7401 19.1069 12.4129 19.1069 13.1144C19.1069 13.8159 18.8462 14.4887 18.3822 14.9848C17.9181 15.4808 17.2888 15.7595 16.6326 15.7595C15.9764 15.7595 15.347 15.4808 14.883 14.9848C14.419 14.4887 14.1583 13.8159 14.1583 13.1144C14.1583 12.4129 14.419 11.7401 14.883 11.2441C15.347 10.748 15.9764 10.4693 16.6326 10.4693Z" fill="black"/>
</svg>
