<svg width="43" height="29" viewBox="0 0 43 29" fill="none" xmlns="http://www.w3.org/2000/svg">
<path d="M2 22.6522V6.34783C2 5.19471 2.45655 4.08882 3.2692 3.27345C4.08186 2.45807 5.18406 2 6.33333 2H24.75C25.8993 2 27.0015 2.45807 27.8141 3.27345C28.6268 4.08882 29.0833 5.19471 29.0833 6.34783V22.6522C29.0833 23.8053 28.6268 24.9112 27.8141 25.7265C27.0015 26.5419 25.8993 27 24.75 27H6.33333C5.18406 27 4.08186 26.5419 3.2692 25.7265C2.45655 24.9112 2 23.8053 2 22.6522ZM39.1973 3.61087L30.5307 11.3565C30.4164 11.4583 30.325 11.5831 30.2622 11.7229C30.1995 11.8626 30.1669 12.0141 30.1667 12.1674V16.0326C30.1669 16.1859 30.1995 16.3374 30.2622 16.4771C30.325 16.6169 30.4164 16.7417 30.5307 16.8435L39.1973 24.5891C39.3535 24.7283 39.5464 24.8191 39.7528 24.8508C39.9592 24.8825 40.1704 24.8537 40.3608 24.7678C40.5513 24.6819 40.713 24.5426 40.8264 24.3666C40.9398 24.1907 41.0001 23.9856 41 23.7761V4.42391C41.0001 4.21439 40.9398 4.00932 40.8264 3.83338C40.713 3.65744 40.5513 3.51813 40.3608 3.43222C40.1704 3.34632 39.9592 3.31748 39.7528 3.34917C39.5464 3.38087 39.3535 3.47175 39.1973 3.61087Z" stroke="black" stroke-width="3" stroke-linecap="round" stroke-linejoin="round"/>
</svg>
