<svg width="18" height="18" viewBox="0 0 18 18" fill="none" xmlns="http://www.w3.org/2000/svg">
<path d="M12.6374 0H5.36261C3.94069 0.00108348 2.57732 0.566393 1.57187 1.5718C0.566419 2.5772 0.00108353 3.94051 0 5.36236V12.6368C0.00086683 14.0588 0.566106 15.4223 1.57158 16.4279C2.57705 17.4335 3.94055 17.9989 5.36261 18H12.6374C14.0594 17.9987 15.4228 17.4332 16.4282 16.4277C17.4336 15.4221 17.9989 14.0587 18 12.6368V5.36236C17.9993 3.94038 17.4342 2.57682 16.4286 1.57132C15.4231 0.565821 14.0594 0.000650448 12.6374 0ZM16.1901 12.6368C16.1899 13.5789 15.8155 14.4824 15.1493 15.1486C14.4831 15.8148 13.5796 16.1891 12.6374 16.1894H5.36261C4.8961 16.1894 4.43416 16.0975 4.00317 15.9189C3.57218 15.7404 3.18059 15.4787 2.85075 15.1488C2.52092 14.8189 2.25931 14.4273 2.08086 13.9963C1.9024 13.5652 1.81061 13.1033 1.81072 12.6368V5.36236C1.81061 4.89591 1.90241 4.43401 2.08087 4.00305C2.25933 3.57209 2.52096 3.1805 2.8508 2.85067C3.18065 2.52084 3.57225 2.25923 4.00323 2.08078C4.43421 1.90232 4.89614 1.81053 5.36261 1.81064H12.6374C13.5793 1.81085 14.4827 2.18512 15.1487 2.85115C15.8148 3.51718 16.1891 4.42045 16.1893 5.36236L16.1901 12.6368Z" fill="#5C5C5C"/>
<path d="M9.00071 4.34644C6.43314 4.34644 4.34668 6.43362 4.34668 9.00026C4.34668 11.5669 6.43396 13.6541 9.00071 13.6541C11.5675 13.6541 13.6547 11.5669 13.6547 9.00026C13.6547 6.43362 11.5683 4.34644 9.00071 4.34644ZM9.00071 11.8434C8.24662 11.8436 7.52337 11.5441 6.99006 11.011C6.45676 10.4779 6.1571 9.75473 6.15699 9.00067C6.15688 8.24661 6.45634 7.52339 6.98949 6.99012C7.52263 6.45684 8.2458 6.15719 8.99989 6.15708C9.75398 6.15697 10.4772 6.45642 11.0105 6.98954C11.5438 7.52266 11.8435 8.24579 11.8436 8.99985C11.8437 9.75391 11.5443 10.4771 11.0111 11.0104C10.478 11.5437 9.7548 11.8433 9.00071 11.8434ZM13.6646 3.26562C13.8851 3.26579 14.1006 3.33131 14.2838 3.45391C14.4671 3.57651 14.6099 3.75068 14.6942 3.95442C14.7785 4.15816 14.8006 4.38232 14.7575 4.59857C14.7144 4.81482 14.6082 5.01345 14.4523 5.16936C14.2964 5.32527 14.0978 5.43147 13.8815 5.47452C13.6653 5.51758 13.4411 5.49556 13.2373 5.41126C13.0336 5.32695 12.8594 5.18414 12.7368 5.00088C12.6142 4.81761 12.5487 4.60212 12.5485 4.38162C12.5485 3.76635 12.9658 3.26562 13.6646 3.26562Z" fill="#5C5C5C"/>
</svg>
