<svg width="18" height="15" viewBox="0 0 18 15" fill="none" xmlns="http://www.w3.org/2000/svg">
<path d="M5.66074 15C3.57611 15 1.63465 14.3733 0 13.2953C0.966785 13.4157 1.94724 13.3394 2.88519 13.0706C3.82315 12.8018 4.70017 12.346 5.46602 11.7291C4.6952 11.7146 3.94813 11.453 3.32966 10.9811C2.71119 10.5091 2.25236 9.85039 2.01754 9.09742C2.24335 9.14273 2.47489 9.16622 2.71133 9.16622C3.04841 9.16622 3.37566 9.11924 3.68738 9.03535C2.85175 8.86182 2.1003 8.39748 1.56027 7.72098C1.02024 7.04448 0.724828 6.19739 0.724058 5.32317V5.27367C1.23602 5.56613 1.80893 5.72838 2.39471 5.74682C1.88854 5.40101 1.47366 4.9322 1.18702 4.38214C0.900385 3.83207 0.750896 3.21785 0.751875 2.59419C0.751875 1.90293 0.935958 1.25026 1.25258 0.691541C2.17977 1.86129 3.33658 2.81797 4.64785 3.49942C5.95912 4.18088 7.39553 4.57187 8.86378 4.647C8.67982 3.83519 8.762 2.98384 9.0976 2.22476C9.43321 1.46568 10.0035 0.84123 10.7202 0.448088C11.4369 0.0549448 12.26 -0.0849545 13.0621 0.0500515C13.8641 0.185058 14.6004 0.587437 15.1569 1.19489C15.9835 1.02712 16.7764 0.716795 17.5018 0.277119C17.2258 1.15378 16.6494 1.89824 15.8794 2.37272C16.6111 2.28313 17.3258 2.08239 18 1.77709C17.5029 2.53647 16.8792 3.20012 16.1575 3.73763C16.1641 3.89954 16.169 4.06312 16.169 4.22671C16.1682 9.22829 12.453 15.0008 5.66074 15Z" fill="#5C5C5C"/>
</svg>
