<svg width="18" height="13" viewBox="0 0 18 13" fill="none" xmlns="http://www.w3.org/2000/svg">
<path d="M15.8114 0.270513C15.8114 0.270513 13.6391 0 8.97382 0C4.45991 0 2.18782 0.270513 2.18782 0.270513C1.6075 0.270728 1.05102 0.499082 0.640748 0.905362C0.230476 1.31164 1.12453e-07 1.86259 1.53003e-07 2.43704V10.5638C-0.000107312 10.8483 0.056397 11.13 0.166287 11.3929C0.276177 11.6558 0.4373 11.8947 0.640458 12.096C0.843616 12.2972 1.08483 12.4569 1.35033 12.5659C1.61582 12.6749 1.9004 12.731 2.18782 12.7311C2.18782 12.7311 4.30036 13 8.97382 13C13.6448 13 15.8114 12.7311 15.8114 12.7311C16.0989 12.7313 16.3837 12.6754 16.6494 12.5665C16.915 12.4577 17.1564 12.298 17.3597 12.0967C17.563 11.8954 17.7242 11.6564 17.8341 11.3934C17.9439 11.1303 18.0003 10.8484 18 10.5638V2.43543C18 2.15099 17.9434 1.86934 17.8334 1.60657C17.7234 1.34381 17.5621 1.10508 17.3589 0.904028C17.1556 0.702976 16.9143 0.543544 16.6488 0.434842C16.3833 0.32614 16.0987 0.2703 15.8114 0.270513ZM6.59536 9.71902V3.28422L12.4323 6.4996L6.59536 9.71902Z" fill="#5C5C5C"/>
</svg>
